# xmcd
#
# Track frame offsets: 
#        150
#        31327
#        73798
#        101160
#        119424
#        143345
#
# Disc length: 2541 seconds
#
# Revision: 0
# Processed by: cddbd v1.5.2PL0 Copyright (c) Steve Scherf et al.
# Submitted via: ExactAudioCopy v1.0b4
#
DISCID=4f09eb06
DTITLE=Charles Ford Band - A Reunion (LP)
DYEAR=1982
DGENRE=Blues
TTITLE0=The Cotton Creeper
TTITLE1=Lockin' For A Woman
TTITLE2=Lockin' For A Woman
TTITLE3=Kiddeo
TTITLE4=Help The Poor
TTITLE5=Forty Days And Forty Nights
EXTD=
EXTT0=
EXTT1=
EXTT2=
EXTT3=
EXTT4=
EXTT5=
PLAYORDER=
